<svg width="70" height="25" viewBox="0 0 70 25" fill="none" xmlns="http://www.w3.org/2000/svg">
<path d="M1.20552 13.8385C0.520315 13.0777 0.520316 11.9223 1.20552 11.1615L6.26391 5.54525C7.49036 4.18354 9.75 5.05112 9.75 6.88373L9.75 18.1163C9.75 19.9489 7.49036 20.8165 6.26391 19.4547L1.20552 13.8385Z" fill="#FEAD81"/>
<path d="M22.2642 20V5.45455H28.0881C29.1581 5.45455 30.0507 5.61316 30.7656 5.9304C31.4806 6.24763 32.018 6.68797 32.3778 7.25142C32.7377 7.81013 32.9176 8.45407 32.9176 9.18324C32.9176 9.75142 32.804 10.2509 32.5767 10.6818C32.3494 11.108 32.0369 11.4583 31.6392 11.733C31.2462 12.0028 30.7964 12.1946 30.2898 12.3082V12.4503C30.8438 12.474 31.3622 12.6302 31.8452 12.919C32.3329 13.2079 32.7282 13.6127 33.0312 14.1335C33.3343 14.6496 33.4858 15.2652 33.4858 15.9801C33.4858 16.7519 33.294 17.4408 32.9105 18.0469C32.5317 18.6482 31.9706 19.1241 31.2273 19.4744C30.4839 19.8248 29.5677 20 28.4787 20H22.2642ZM25.3395 17.4858H27.8466C28.7036 17.4858 29.3286 17.3224 29.7216 16.9957C30.1146 16.6643 30.3111 16.224 30.3111 15.6747C30.3111 15.2723 30.214 14.9171 30.0199 14.6094C29.8258 14.3016 29.5488 14.0601 29.1889 13.8849C28.8338 13.7098 28.41 13.6222 27.9176 13.6222H25.3395V17.4858ZM25.3395 11.5412H27.6193C28.0407 11.5412 28.4148 11.4678 28.7415 11.321C29.0729 11.1695 29.3333 10.9564 29.5227 10.6818C29.7169 10.4072 29.8139 10.0781 29.8139 9.6946C29.8139 9.16903 29.6269 8.74527 29.2528 8.4233C28.8835 8.10133 28.358 7.94034 27.6761 7.94034H25.3395V11.5412ZM38.5408 20.206C37.8448 20.206 37.2246 20.0852 36.68 19.8438C36.1355 19.5975 35.7047 19.2353 35.3874 18.7571C35.0749 18.2741 34.9187 17.6728 34.9187 16.9531C34.9187 16.3471 35.0299 15.8381 35.2525 15.4261C35.475 15.0142 35.7781 14.6828 36.1616 14.4318C36.5451 14.1809 36.9807 13.9915 37.4684 13.8636C37.9608 13.7358 38.4769 13.6458 39.0167 13.5938C39.6512 13.5275 40.1625 13.4659 40.5508 13.4091C40.939 13.3475 41.2208 13.2576 41.396 13.1392C41.5711 13.0208 41.6587 12.8456 41.6587 12.6136V12.571C41.6587 12.1212 41.5167 11.7732 41.2326 11.527C40.9532 11.2808 40.5555 11.1577 40.0394 11.1577C39.4949 11.1577 39.0617 11.2784 38.7397 11.5199C38.4177 11.7566 38.2047 12.0549 38.1005 12.4148L35.3022 12.1875C35.4442 11.5246 35.7236 10.9517 36.1403 10.4688C36.5569 9.98106 37.0943 9.60701 37.7525 9.34659C38.4154 9.08144 39.1824 8.94886 40.0536 8.94886C40.6597 8.94886 41.2397 9.01989 41.7937 9.16193C42.3524 9.30398 42.8472 9.52415 43.2781 9.82244C43.7137 10.1207 44.0569 10.5043 44.3079 10.973C44.5588 11.437 44.6843 11.9934 44.6843 12.642V20H41.815V18.4872H41.7298C41.5546 18.8281 41.3202 19.1288 41.0266 19.3892C40.7331 19.6449 40.3803 19.8461 39.9684 19.9929C39.5565 20.1349 39.0806 20.206 38.5408 20.206ZM39.4073 18.1179C39.8524 18.1179 40.2454 18.0303 40.5863 17.8551C40.9272 17.6752 41.1947 17.4337 41.3888 17.1307C41.583 16.8277 41.68 16.4844 41.68 16.1009V14.9432C41.5853 15.0047 41.4551 15.0616 41.2894 15.1136C41.1284 15.161 40.9461 15.206 40.7425 15.2486C40.5389 15.2865 40.3353 15.322 40.1317 15.3551C39.9281 15.3835 39.7435 15.4096 39.5778 15.4332C39.2227 15.4853 38.9125 15.5682 38.6474 15.6818C38.3822 15.7955 38.1763 15.9493 38.0295 16.1435C37.8827 16.3329 37.8093 16.5696 37.8093 16.8537C37.8093 17.2656 37.9585 17.5805 38.2567 17.7983C38.5598 18.0114 38.9433 18.1179 39.4073 18.1179ZM51.9606 20.2131C50.8432 20.2131 49.882 19.9763 49.0771 19.5028C48.2769 19.0246 47.6613 18.3617 47.2305 17.5142C46.8043 16.6667 46.5913 15.6913 46.5913 14.5881C46.5913 13.4706 46.8067 12.4905 47.2376 11.6477C47.6732 10.8002 48.2911 10.1397 49.0913 9.66619C49.8915 9.18797 50.8432 8.94886 51.9464 8.94886C52.8981 8.94886 53.7314 9.12169 54.4464 9.46733C55.1613 9.81297 55.7272 10.2983 56.1438 10.9233C56.5605 11.5483 56.7901 12.2822 56.8327 13.125H53.9776C53.8971 12.5805 53.6841 12.1425 53.3384 11.8111C52.9975 11.4749 52.5501 11.3068 51.9961 11.3068C51.5273 11.3068 51.1178 11.4347 50.7674 11.6903C50.4218 11.9413 50.1519 12.3082 49.9577 12.7912C49.7636 13.2741 49.6665 13.8589 49.6665 14.5455C49.6665 15.2415 49.7612 15.8333 49.9506 16.321C50.1448 16.8087 50.417 17.1804 50.7674 17.4361C51.1178 17.6918 51.5273 17.8196 51.9961 17.8196C52.3417 17.8196 52.6519 17.7486 52.9265 17.6065C53.2058 17.4645 53.4355 17.2585 53.6154 16.9886C53.8001 16.714 53.9208 16.3849 53.9776 16.0014H56.8327C56.7854 16.8348 56.5581 17.5687 56.1509 18.2031C55.7485 18.8329 55.1921 19.3253 54.4819 19.6804C53.7717 20.0355 52.9312 20.2131 51.9606 20.2131ZM61.5114 16.8608L61.5185 13.2315H61.9588L65.4531 9.09091H68.9261L64.2315 14.5739H63.5142L61.5114 16.8608ZM58.7699 20V5.45455H61.7955V20H58.7699ZM65.5881 20L62.3778 15.2486L64.3949 13.1108L69.1321 20H65.5881Z" fill="#FEAD81"/>
</svg>
