<svg width="26" height="25" viewBox="0 0 26 25" fill="none" xmlns="http://www.w3.org/2000/svg">
<path fill-rule="evenodd" clip-rule="evenodd" d="M25.3705 11.2496V12.424C25.1863 12.5581 24.9419 12.6058 24.7076 12.5311L23.1916 12.0478C22.8044 11.9244 22.5916 11.5135 22.7163 11.13C22.8409 10.7466 23.2559 10.5359 23.6431 10.6593L25.1591 11.1426C25.2371 11.1675 25.308 11.204 25.3705 11.2496ZM13.9081 0C13.8629 0 13.8171 0.00413419 13.7711 0.0127071C13.3713 0.0871845 13.1082 0.468463 13.1834 0.864317L13.4778 2.41406C13.5531 2.80991 13.9381 3.07044 14.3379 2.99596C14.7377 2.92149 15.0008 2.54021 14.9256 2.14435L14.6311 0.59461C14.5646 0.244322 14.2554 0 13.9081 0ZM17.3876 16.6288C17.3124 16.2329 17.5755 15.8516 17.9753 15.7772C18.3751 15.7027 18.7601 15.9632 18.8354 16.3591L19.1298 17.9088C19.205 18.3047 18.9419 18.6859 18.5421 18.7604C18.1423 18.8349 17.7573 18.5744 17.6821 18.1785L17.3876 16.6288ZM11.6216 13.9011C11.0288 13.3142 10.0677 13.3142 9.47493 13.9011L0.856938 22.4343C0.264159 23.0212 0.264159 23.9728 0.856938 24.5598C1.44972 25.1467 2.4108 25.1467 3.00358 24.5598L11.6216 16.0266C12.2143 15.4397 12.2143 14.4881 11.6216 13.9011ZM22.0706 2.5686C22.3669 2.29255 22.833 2.30656 23.1118 2.5999C23.3906 2.89323 23.3765 3.35481 23.0802 3.63085L21.9204 4.71157C21.6242 4.98761 21.158 4.9736 20.8792 4.68027C20.6004 4.38694 20.6146 3.92536 20.9108 3.64931L22.0706 2.5686ZM6.67856 6.7061C6.55388 7.08952 6.76672 7.50041 7.15395 7.62386L8.66992 8.10715C9.05715 8.2306 9.47213 8.01985 9.5968 7.63644C9.72148 7.25302 9.50864 6.84213 9.12141 6.71868L7.60544 6.23539C7.21821 6.11194 6.80323 6.32268 6.67856 6.7061ZM19.1266 2.67214C19.0317 1.76041 17.8594 1.43334 17.2977 2.1619L15.6043 4.35854C15.3166 4.7318 14.8073 4.85999 14.3744 4.66812L11.8271 3.53896C10.9822 3.16444 10.11 4.00618 10.4664 4.85208L11.541 7.4025C11.7236 7.83588 11.581 8.33669 11.1968 8.61192L8.93553 10.2317C8.18553 10.7689 8.48562 11.9377 9.40368 12.055L12.1716 12.4088C12.642 12.4689 13.0088 12.8415 13.0574 13.3086L13.3434 16.0575C13.4383 16.9693 14.6106 17.2964 15.1723 16.5678L16.8657 14.3712C17.1534 13.9979 17.6627 13.8697 18.0956 14.0616L20.6429 15.1907C21.4877 15.5652 22.36 14.7235 22.0036 13.8776L20.929 11.3272C20.7464 10.8938 20.889 10.393 21.2732 10.1178L23.5345 8.49803C24.2845 7.96081 23.9844 6.792 23.0663 6.67466L20.2983 6.32088C19.828 6.26076 19.4612 5.88815 19.4126 5.42105L19.1266 2.67214Z" fill="#271D66"/>
</svg>
