<svg width="26" height="25" viewBox="0 0 26 25" fill="none" xmlns="http://www.w3.org/2000/svg">
<path fill-rule="evenodd" clip-rule="evenodd" d="M25.3702 11.2496V12.424C25.1861 12.5581 24.9416 12.6058 24.7074 12.5311L23.1914 12.0478C22.8042 11.9244 22.5913 11.5135 22.716 11.13C22.8407 10.7466 23.2557 10.5359 23.6429 10.6593L25.1589 11.1426C25.2368 11.1675 25.3077 11.204 25.3702 11.2496ZM13.9078 0C13.8627 0 13.8168 0.00413419 13.7708 0.0127071C13.371 0.0871845 13.1079 0.468463 13.1831 0.864317L13.4776 2.41406C13.5528 2.80991 13.9379 3.07044 14.3377 2.99596C14.7375 2.92149 15.0006 2.54021 14.9254 2.14435L14.6309 0.59461C14.5643 0.244322 14.2551 0 13.9078 0ZM17.3873 16.6288C17.3121 16.2329 17.5752 15.8516 17.975 15.7772C18.3748 15.7027 18.7599 15.9632 18.8351 16.3591L19.1296 17.9088C19.2048 18.3047 18.9417 18.6859 18.5419 18.7604C18.1421 18.8349 17.757 18.5744 17.6818 18.1785L17.3873 16.6288ZM11.6213 13.9011C11.0285 13.3142 10.0675 13.3142 9.47468 13.9011L0.856694 22.4343C0.263915 23.0212 0.263914 23.9728 0.856694 24.5598C1.44947 25.1467 2.41056 25.1467 3.00334 24.5598L11.6213 16.0266C12.2141 15.4397 12.2141 14.4881 11.6213 13.9011ZM22.0704 2.5686C22.3666 2.29255 22.8328 2.30656 23.1116 2.5999C23.3904 2.89323 23.3762 3.35481 23.08 3.63085L21.9202 4.71157C21.6239 4.98761 21.1578 4.9736 20.879 4.68027C20.6002 4.38694 20.6143 3.92536 20.9106 3.64931L22.0704 2.5686ZM6.67831 6.7061C6.55364 7.08952 6.76648 7.50041 7.1537 7.62386L8.66968 8.10715C9.0569 8.2306 9.47188 8.01985 9.59656 7.63644C9.72124 7.25302 9.50839 6.84213 9.12117 6.71868L7.6052 6.23539C7.21797 6.11194 6.80299 6.32268 6.67831 6.7061ZM19.1263 2.67214C19.0315 1.76041 17.8591 1.43334 17.2975 2.1619L15.6041 4.35854C15.3163 4.7318 14.807 4.85999 14.3742 4.66812L11.8269 3.53896C10.982 3.16444 10.1098 4.00618 10.4662 4.85208L11.5407 7.4025C11.7233 7.83588 11.5808 8.33669 11.1965 8.61192L8.93528 10.2317C8.18529 10.7689 8.48538 11.9377 9.40343 12.055L12.1714 12.4088C12.6417 12.4689 13.0085 12.8415 13.0571 13.3086L13.3432 16.0575C13.438 16.9693 14.6104 17.2964 15.172 16.5678L16.8654 14.3712C17.1532 13.9979 17.6625 13.8697 18.0953 14.0616L20.6426 15.1907C21.4875 15.5652 22.3597 14.7235 22.0033 13.8776L20.9288 11.3272C20.7462 10.8938 20.8887 10.393 21.273 10.1178L23.5342 8.49803C24.2842 7.96081 23.9841 6.792 23.0661 6.67466L20.2981 6.32088C19.8278 6.26076 19.461 5.88815 19.4124 5.42105L19.1263 2.67214Z" fill="white"/>
</svg>
