<svg width="29" height="26" viewBox="0 0 29 26" fill="none" xmlns="http://www.w3.org/2000/svg">
<path d="M19.3334 22.075V19.9917C19.3334 18.8866 18.8241 17.8268 17.9177 17.0454C17.0113 16.264 15.7819 15.825 14.5 15.825H6.04171C4.75983 15.825 3.53045 16.264 2.62402 17.0454C1.7176 17.8268 1.20837 18.8866 1.20837 19.9917V22.075M24.1667 8.53335V14.7833M27.7917 11.6583H20.5417M15.1042 7.49168C15.1042 9.79286 12.9402 11.6583 10.2709 11.6583C7.6015 11.6583 5.43754 9.79286 5.43754 7.49168C5.43754 5.19049 7.6015 3.32501 10.2709 3.32501C12.9402 3.32501 15.1042 5.19049 15.1042 7.49168Z" stroke="#FEAD81" stroke-width="2" stroke-linecap="round" stroke-linejoin="round"/>
</svg>
