<svg width="25" height="26" viewBox="0 0 25 26" fill="none" xmlns="http://www.w3.org/2000/svg">
<path d="M7.25 0H17.75C21.75 0 25 3.276 25 7.308V17.892C25 19.8302 24.2362 21.689 22.8765 23.0595C21.5169 24.4301 19.6728 25.2 17.75 25.2H7.25C3.25 25.2 0 21.924 0 17.892V7.308C0 5.3698 0.763837 3.51098 2.12348 2.14046C3.48311 0.769948 5.32718 0 7.25 0ZM7 2.52C5.80653 2.52 4.66193 2.9979 3.81802 3.84856C2.97411 4.69923 2.5 5.85298 2.5 7.056V18.144C2.5 20.6514 4.5125 22.68 7 22.68H18C19.1935 22.68 20.3381 22.2021 21.182 21.3514C22.0259 20.5008 22.5 19.347 22.5 18.144V7.056C22.5 4.5486 20.4875 2.52 18 2.52H7ZM19.0625 4.41C19.4769 4.41 19.8743 4.57594 20.1674 4.87131C20.4604 5.16668 20.625 5.56728 20.625 5.985C20.625 6.40272 20.4604 6.80332 20.1674 7.09869C19.8743 7.39406 19.4769 7.56 19.0625 7.56C18.6481 7.56 18.2507 7.39406 17.9576 7.09869C17.6646 6.80332 17.5 6.40272 17.5 5.985C17.5 5.56728 17.6646 5.16668 17.9576 4.87131C18.2507 4.57594 18.6481 4.41 19.0625 4.41ZM12.5 6.3C14.1576 6.3 15.7473 6.96375 16.9194 8.14523C18.0915 9.32671 18.75 10.9291 18.75 12.6C18.75 14.2709 18.0915 15.8733 16.9194 17.0548C15.7473 18.2363 14.1576 18.9 12.5 18.9C10.8424 18.9 9.25269 18.2363 8.08058 17.0548C6.90848 15.8733 6.25 14.2709 6.25 12.6C6.25 10.9291 6.90848 9.32671 8.08058 8.14523C9.25269 6.96375 10.8424 6.3 12.5 6.3ZM12.5 8.82C11.5054 8.82 10.5516 9.21825 9.84835 9.92714C9.14509 10.636 8.75 11.5975 8.75 12.6C8.75 13.6025 9.14509 14.564 9.84835 15.2729C10.5516 15.9818 11.5054 16.38 12.5 16.38C13.4946 16.38 14.4484 15.9818 15.1517 15.2729C15.8549 14.564 16.25 13.6025 16.25 12.6C16.25 11.5975 15.8549 10.636 15.1517 9.92714C14.4484 9.21825 13.4946 8.82 12.5 8.82Z" fill="#271D66"/>
</svg>
