<svg width="25" height="26" viewBox="0 0 25 26" fill="none" xmlns="http://www.w3.org/2000/svg">
<path d="M22.2222 0C22.9589 0 23.6655 0.294999 24.1864 0.820101C24.7073 1.3452 25 2.05739 25 2.8V22.4C25 23.1426 24.7073 23.8548 24.1864 24.3799C23.6655 24.905 22.9589 25.2 22.2222 25.2H2.77778C2.04107 25.2 1.33453 24.905 0.813592 24.3799C0.292658 23.8548 0 23.1426 0 22.4V2.8C0 2.05739 0.292658 1.3452 0.813592 0.820101C1.33453 0.294999 2.04107 0 2.77778 0H22.2222ZM21.5278 21.7V14.28C21.5278 13.0696 21.0507 11.9087 20.2016 11.0528C19.3525 10.1968 18.2008 9.716 17 9.716C15.8194 9.716 14.4444 10.444 13.7778 11.536V9.982H9.90278V21.7H13.7778V14.798C13.7778 13.72 14.6389 12.838 15.7083 12.838C16.224 12.838 16.7186 13.0445 17.0833 13.4121C17.4479 13.7796 17.6528 14.2782 17.6528 14.798V21.7H21.5278ZM5.38889 7.784C6.00773 7.784 6.60122 7.5362 7.03881 7.09512C7.47639 6.65403 7.72222 6.05579 7.72222 5.432C7.72222 4.13 6.68056 3.066 5.38889 3.066C4.76637 3.066 4.16934 3.31527 3.72915 3.75899C3.28896 4.2027 3.04167 4.8045 3.04167 5.432C3.04167 6.734 4.09722 7.784 5.38889 7.784ZM7.31944 21.7V9.982H3.47222V21.7H7.31944Z" fill="#FEAD81"/>
</svg>
