<svg width="25" height="26" viewBox="0 0 25 26" fill="none" xmlns="http://www.w3.org/2000/svg">
<path d="M14.0625 6.45001C14.0625 6.03561 13.8979 5.63818 13.6049 5.34516C13.3118 5.05213 12.9144 4.88751 12.5 4.88751C12.0856 4.88751 11.6882 5.05213 11.3951 5.34516C11.1021 5.63818 10.9375 6.03561 10.9375 6.45001C10.9375 6.86441 11.1021 7.26184 11.3951 7.55487C11.6882 7.84789 12.0856 8.01251 12.5 8.01251C12.9144 8.01251 13.3118 7.84789 13.6049 7.55487C13.8979 7.26184 14.0625 6.86441 14.0625 6.45001ZM12.5 11.1375C12.9144 11.1375 13.3118 11.3021 13.6049 11.5952C13.8979 11.8882 14.0625 12.2856 14.0625 12.7C14.0625 13.1144 13.8979 13.5118 13.6049 13.8049C13.3118 14.0979 12.9144 14.2625 12.5 14.2625C12.0856 14.2625 11.6882 14.0979 11.3951 13.8049C11.1021 13.5118 10.9375 13.1144 10.9375 12.7C10.9375 12.2856 11.1021 11.8882 11.3951 11.5952C11.6882 11.3021 12.0856 11.1375 12.5 11.1375ZM12.5 17.3875C12.9144 17.3875 13.3118 17.5521 13.6049 17.8452C13.8979 18.1382 14.0625 18.5356 14.0625 18.95C14.0625 19.3644 13.8979 19.7618 13.6049 20.0549C13.3118 20.3479 12.9144 20.5125 12.5 20.5125C12.0856 20.5125 11.6882 20.3479 11.3951 20.0549C11.1021 19.7618 10.9375 19.3644 10.9375 18.95C10.9375 18.5356 11.1021 18.1382 11.3951 17.8452C11.6882 17.5521 12.0856 17.3875 12.5 17.3875Z" fill="#271D66"/>
</svg>
