<svg width="35" height="35" viewBox="0 0 35 35" fill="none" xmlns="http://www.w3.org/2000/svg">
<path d="M17.5666 0.280518C8.26465 0.280518 0.725708 7.98894 0.725708 17.5C0.725708 27.0111 8.26465 34.7195 17.5666 34.7195C26.8686 34.7195 34.4075 27.0111 34.4075 17.5C34.4075 7.98894 26.8686 0.280518 17.5666 0.280518ZM17.5666 8.89027C20.1829 8.89027 22.3031 11.0588 22.3031 13.7333C22.3031 16.4077 20.1849 18.5762 17.5666 18.5762C14.951 18.5762 12.8301 16.4077 12.8301 13.7333C12.8301 11.0588 14.9484 8.89027 17.5666 8.89027ZM17.5666 30.4146C14.0846 30.4146 10.9289 28.9665 8.63962 26.6284C9.70533 23.8161 12.3367 21.8049 15.4615 21.8049H19.6717C22.7991 21.8049 25.4305 23.8147 26.4936 26.6284C24.2043 28.9685 21.0466 30.4146 17.5666 30.4146Z" fill="#FEAD81"/>
</svg>
