<svg width="75" height="74" viewBox="0 0 75 74" fill="none" xmlns="http://www.w3.org/2000/svg">
<path d="M46.7497 37.0002C53.5638 37.0002 59.083 31.481 59.083 24.6668C59.083 17.8527 53.5638 12.3335 46.7497 12.3335C39.9355 12.3335 34.4163 17.8527 34.4163 24.6668C34.4163 31.481 39.9355 37.0002 46.7497 37.0002ZM18.9997 30.8335V24.6668C18.9997 22.971 17.6122 21.5835 15.9163 21.5835C14.2205 21.5835 12.833 22.971 12.833 24.6668V30.8335H6.66634C4.97051 30.8335 3.58301 32.221 3.58301 33.9168C3.58301 35.6127 4.97051 37.0002 6.66634 37.0002H12.833V43.1668C12.833 44.8627 14.2205 46.2502 15.9163 46.2502C17.6122 46.2502 18.9997 44.8627 18.9997 43.1668V37.0002H25.1663C26.8622 37.0002 28.2497 35.6127 28.2497 33.9168C28.2497 32.221 26.8622 30.8335 25.1663 30.8335H18.9997ZM46.7497 43.1668C38.5172 43.1668 22.083 47.2985 22.083 55.5002V58.5835C22.083 60.2793 23.4705 61.6668 25.1663 61.6668H68.333C70.0288 61.6668 71.4163 60.2793 71.4163 58.5835V55.5002C71.4163 47.2985 54.9822 43.1668 46.7497 43.1668Z" fill="#1A1921"/>
</svg>
