<svg width="28" height="27" viewBox="0 0 28 27" fill="none" xmlns="http://www.w3.org/2000/svg">
<path d="M26.5 13.5C26.5 6.59625 20.9037 1 14 1C7.09625 1 1.5 6.59625 1.5 13.5C1.5 20.4037 7.09625 26 14 26C20.9037 26 26.5 20.4037 26.5 13.5Z" stroke="black" stroke-width="2" stroke-linecap="round" stroke-linejoin="round"/>
<path d="M14 13.4999L13.9925 13.5074M14.5013 8.87245L18.1513 7.6562C19.2588 7.2862 19.8138 7.10245 20.1063 7.3937C20.3975 7.6862 20.2138 8.23995 19.8438 9.3487L18.6275 12.9987C17.9988 14.8862 17.6838 15.8299 17.0063 16.5062C16.33 17.1837 15.3863 17.4987 13.4988 18.1274L9.84877 19.3437C8.74002 19.7137 8.18627 19.8987 7.89377 19.6062C7.60127 19.3137 7.78627 18.7587 8.15627 17.6512L9.37252 14.0012C10.0013 12.1137 10.3163 11.1699 10.9938 10.4937C11.67 9.8162 12.6138 9.5012 14.5013 8.87245Z" stroke="black" stroke-width="2" stroke-linecap="round" stroke-linejoin="round"/>
</svg>
