<svg width="12" height="16" viewBox="0 0 12 16" fill="none" xmlns="http://www.w3.org/2000/svg">
<path d="M6 7.6C5.43168 7.6 4.88663 7.38929 4.48477 7.01421C4.08291 6.63914 3.85714 6.13043 3.85714 5.6C3.85714 5.06957 4.08291 4.56086 4.48477 4.18579C4.88663 3.81071 5.43168 3.6 6 3.6C6.56832 3.6 7.11337 3.81071 7.51523 4.18579C7.91709 4.56086 8.14286 5.06957 8.14286 5.6C8.14286 5.86264 8.08743 6.12272 7.97974 6.36537C7.87205 6.60802 7.71421 6.8285 7.51523 7.01421C7.31625 7.19993 7.08002 7.34725 6.82004 7.44776C6.56005 7.54827 6.2814 7.6 6 7.6ZM6 0C4.4087 0 2.88258 0.589998 1.75736 1.6402C0.632141 2.69041 0 4.11479 0 5.6C0 9.8 6 16 6 16C6 16 12 9.8 12 5.6C12 4.11479 11.3679 2.69041 10.2426 1.6402C9.11742 0.589998 7.5913 0 6 0Z" fill="black"/>
</svg>
