<?xml version="1.0" standalone="no"?>
<!DOCTYPE svg PUBLIC "-//W3C//DTD SVG 20010904//EN"
 "http://www.w3.org/TR/2001/REC-SVG-20010904/DTD/svg10.dtd">
<svg version="1.0" xmlns="http://www.w3.org/2000/svg"
 width="64.000000pt" height="64.000000pt" viewBox="0 0 64.000000 64.000000"
 preserveAspectRatio="xMidYMid meet">

<g transform="translate(0.000000,64.000000) scale(0.100000,-0.100000)"
fill="#000000" stroke="none">
<path d="M225 507 c-82 -27 -160 -84 -202 -148 l-26 -39 26 -39 c33 -49 100
-104 163 -133 70 -32 198 -32 268 0 63 29 130 84 163 133 l26 39 -26 39 c-33
50 -101 105 -163 132 -60 27 -172 35 -229 16z m218 -55 c54 -24 147 -107 147
-132 0 -25 -92 -108 -148 -133 -65 -30 -179 -30 -244 0 -56 25 -148 108 -148
133 0 19 80 99 121 120 81 44 189 49 272 12z"/>
<path d="M275 431 c-45 -20 -70 -60 -70 -112 0 -42 5 -53 33 -81 47 -48 117
-48 164 0 28 28 33 39 33 82 0 42 -5 54 -31 81 -33 33 -92 46 -129 30z m100
-56 c50 -49 15 -135 -55 -135 -41 0 -80 39 -80 80 0 41 39 80 80 80 19 0 40
-9 55 -25z"/>
</g>
</svg>
