<?xml version="1.0" standalone="no"?>
<!DOCTYPE svg PUBLIC "-//W3C//DTD SVG 20010904//EN"
 "http://www.w3.org/TR/2001/REC-SVG-20010904/DTD/svg10.dtd">
<svg version="1.0" xmlns="http://www.w3.org/2000/svg"
 width="64.000000pt" height="64.000000pt" viewBox="0 0 64.000000 64.000000"
 preserveAspectRatio="xMidYMid meet">

<g transform="translate(0.000000,64.000000) scale(0.100000,-0.100000)"
fill="#000000" stroke="none">
<path d="M500 525 l-35 -35 -50 16 c-135 42 -310 -24 -392 -147 l-26 -39 26
-39 c14 -21 46 -56 72 -76 l46 -38 -33 -34 c-25 -26 -29 -36 -20 -45 10 -10
61 37 242 217 127 127 229 234 227 239 -7 20 -24 15 -57 -19z m-106 -56 c38
-11 39 -11 19 -30 -16 -17 -23 -18 -51 -8 -95 33 -186 -58 -153 -153 10 -28 8
-34 -11 -55 -12 -13 -25 -23 -29 -23 -16 0 -119 103 -119 120 0 18 80 99 121
120 69 38 153 48 223 29z m-40 -77 c7 -11 -98 -115 -107 -106 -16 16 -6 66 18
89 24 25 78 34 89 17z"/>
<path d="M514 429 c-3 -6 12 -30 35 -53 22 -23 41 -49 41 -58 0 -23 -94 -106
-148 -131 -32 -15 -70 -22 -120 -23 -51 -1 -79 -6 -89 -17 -14 -14 -11 -16 32
-22 131 -20 278 45 351 155 29 44 26 55 -33 121 -36 40 -56 48 -69 28z"/>
<path d="M419 333 c-8 -10 -21 -31 -27 -46 -7 -16 -26 -34 -45 -42 -19 -8 -40
-22 -48 -31 -13 -16 -11 -17 30 -11 53 7 98 46 107 93 8 45 2 60 -17 37z"/>
</g>
</svg>
