<svg width="22" height="22" viewBox="0 0 22 22" fill="none" xmlns="http://www.w3.org/2000/svg">
<path d="M15.125 2.0625V3.4375H17.5746L15.2543 5.77913C14.4249 5.15279 13.4143 4.81349 12.375 4.8125C11.0894 4.8125 9.88901 5.32125 8.98013 6.23081C8.53087 6.67465 8.1742 7.20326 7.93079 7.78598C7.68737 8.36871 7.56207 8.99396 7.56213 9.62549C7.56219 10.257 7.68763 10.8822 7.93116 11.4649C8.17469 12.0476 8.53147 12.5761 8.98082 13.0199C9.57894 13.618 10.2912 14.0477 11.0859 14.2656C11.1643 14.2058 11.2523 14.1432 11.3224 14.0731C11.6106 13.78 11.8177 13.4171 11.9233 13.0199C11.1748 12.9278 10.4788 12.5872 9.94676 12.0526C9.29776 11.4043 8.93751 10.5435 8.93751 9.625C8.93751 8.7065 9.29844 7.84713 9.94813 7.19813C10.5958 6.54706 11.4565 6.1875 12.375 6.1875C13.2935 6.1875 14.1536 6.54844 14.8019 7.19813C15.1225 7.51565 15.377 7.89367 15.5505 8.31026C15.7239 8.72685 15.813 9.17373 15.8125 9.625C15.8125 10.2197 15.6441 10.7731 15.3615 11.2791C15.4275 11.6339 15.4688 12.0065 15.4688 12.375C15.4688 12.7183 15.4401 13.0552 15.3828 13.3856C15.5203 13.2736 15.6427 13.1464 15.7699 13.0199C16.6788 12.1096 17.1875 10.9106 17.1875 9.625C17.1875 8.57312 16.841 7.5735 16.2209 6.74575L18.5625 4.42613V6.875H19.9375V2.0625H15.125ZM10.9141 7.73438C10.8357 7.79419 10.7477 7.85675 10.6776 7.92687C10.3806 8.22525 10.1867 8.58687 10.0767 8.98081C10.8261 9.07706 11.5101 9.40431 12.0533 9.94744C12.7029 10.5957 13.0639 11.4565 13.0639 12.3743C13.0639 13.2921 12.7029 14.1522 12.0533 14.8012C11.4043 15.4529 10.5435 15.8125 9.62501 15.8125C8.70651 15.8125 7.84644 15.4516 7.19813 14.8019C6.87716 14.4846 6.62252 14.1066 6.44901 13.69C6.27551 13.2733 6.18662 12.8263 6.18751 12.375C6.18751 11.7803 6.35594 11.2269 6.6385 10.7209C6.57026 10.3595 6.53437 9.99275 6.53126 9.625C6.53126 9.28217 6.5599 8.94529 6.61719 8.61437C6.47969 8.72644 6.35801 8.85362 6.23013 8.98081C5.32263 9.889 4.81251 11.0894 4.81251 12.375C4.81251 13.4269 5.15901 14.4265 5.77913 15.2542L4.62 16.4141L3.245 15.0391L2.255 16.0057L3.63001 17.3807L2.255 18.7557L3.245 19.7457L4.62 18.3707L5.99501 19.7457L6.96094 18.7557L5.58594 17.3807L6.74644 16.2216C7.57494 16.8489 8.58582 17.1881 9.62501 17.1875C10.9106 17.1875 12.111 16.6788 13.0199 15.7692C13.9288 14.861 14.4375 13.6606 14.4375 12.375C14.4375 11.0894 13.9288 9.89038 13.0192 8.98013C12.4211 8.382 11.7088 7.95231 10.9141 7.73438Z" fill="black"/>
</svg>
