<svg width="20" height="20" viewBox="0 0 20 20" fill="none" xmlns="http://www.w3.org/2000/svg">
<path d="M15.8333 5.41659H13.3333V4.58325C13.3333 3.92021 13.0699 3.28433 12.6011 2.81549C12.1322 2.34664 11.4963 2.08325 10.8333 2.08325H9.16663C8.50358 2.08325 7.8677 2.34664 7.39886 2.81549C6.93002 3.28433 6.66663 3.92021 6.66663 4.58325V5.41659H4.16663C3.50358 5.41659 2.8677 5.67998 2.39886 6.14882C1.93002 6.61766 1.66663 7.25354 1.66663 7.91658V15.4166C1.66663 16.0796 1.93002 16.7155 2.39886 17.1844C2.8677 17.6532 3.50358 17.9166 4.16663 17.9166H15.8333C16.4963 17.9166 17.1322 17.6532 17.6011 17.1844C18.0699 16.7155 18.3333 16.0796 18.3333 15.4166V7.91658C18.3333 7.25354 18.0699 6.61766 17.6011 6.14882C17.1322 5.67998 16.4963 5.41659 15.8333 5.41659ZM8.33329 4.58325C8.33329 4.36224 8.42109 4.15028 8.57737 3.994C8.73365 3.83772 8.94561 3.74992 9.16663 3.74992H10.8333C11.0543 3.74992 11.2663 3.83772 11.4225 3.994C11.5788 4.15028 11.6666 4.36224 11.6666 4.58325V5.41659H8.33329V4.58325ZM16.6666 15.4166C16.6666 15.6376 16.5788 15.8496 16.4225 16.0058C16.2663 16.1621 16.0543 16.2499 15.8333 16.2499H4.16663C3.94561 16.2499 3.73365 16.1621 3.57737 16.0058C3.42109 15.8496 3.33329 15.6376 3.33329 15.4166V11.2083H5.83329V12.0833C5.83329 12.3043 5.92109 12.5162 6.07737 12.6725C6.23365 12.8288 6.44561 12.9166 6.66663 12.9166C6.88764 12.9166 7.0996 12.8288 7.25588 12.6725C7.41216 12.5162 7.49996 12.3043 7.49996 12.0833V11.2083H12.5V12.0833C12.5 12.3043 12.5878 12.5162 12.744 12.6725C12.9003 12.8288 13.1123 12.9166 13.3333 12.9166C13.5543 12.9166 13.7663 12.8288 13.9225 12.6725C14.0788 12.5162 14.1666 12.3043 14.1666 12.0833V11.2083H16.6666V15.4166ZM16.6666 9.58325H3.33329V7.91658C3.33329 7.69557 3.42109 7.48361 3.57737 7.32733C3.73365 7.17105 3.94561 7.08325 4.16663 7.08325H15.8333C16.0543 7.08325 16.2663 7.17105 16.4225 7.32733C16.5788 7.48361 16.6666 7.69557 16.6666 7.91658V9.58325Z" fill="black"/>
</svg>
