<svg width="23" height="23" viewBox="0 0 23 23" fill="none" xmlns="http://www.w3.org/2000/svg">
<path d="M11.5 14.625C13.2259 14.625 14.625 13.2259 14.625 11.5C14.625 9.77411 13.2259 8.375 11.5 8.375C9.77411 8.375 8.375 9.77411 8.375 11.5C8.375 13.2259 9.77411 14.625 11.5 14.625Z" stroke="black" stroke-width="1.5"/>
<path d="M13.3383 1.24232C12.956 1.08398 12.4706 1.08398 11.4997 1.08398C10.5289 1.08398 10.0435 1.08398 9.6612 1.24232C9.40826 1.34702 9.17844 1.50054 8.98487 1.69411C8.7913 1.88768 8.63777 2.11751 8.53307 2.37044C8.43724 2.60273 8.3987 2.87461 8.38411 3.2694C8.37733 3.55474 8.29828 3.8337 8.15436 4.08019C8.01045 4.32667 7.80636 4.53262 7.5612 4.67878C7.31204 4.81812 7.0316 4.89198 6.74612 4.89343C6.46065 4.89489 6.17947 4.8239 5.9289 4.68711C5.5789 4.50169 5.32578 4.39961 5.07474 4.36628C4.52715 4.29427 3.97338 4.44264 3.53515 4.77878C3.20807 5.0319 2.96432 5.45169 2.4789 6.29232C1.99349 7.13294 1.74974 7.55273 1.69661 7.96419C1.66082 8.2355 1.67882 8.5112 1.7496 8.77554C1.82038 9.03989 1.94254 9.2877 2.10911 9.50482C2.26328 9.70482 2.4789 9.87253 2.81328 10.0829C3.30599 10.3923 3.62265 10.9194 3.62265 11.5007C3.62265 12.0819 3.30599 12.609 2.81328 12.9173C2.4789 13.1288 2.26224 13.2965 2.10911 13.4965C1.94254 13.7136 1.82038 13.9614 1.7496 14.2258C1.67882 14.4901 1.66082 14.7658 1.69661 15.0371C1.75078 15.4475 1.99349 15.8684 2.47786 16.709C2.96432 17.5496 3.20703 17.9694 3.53515 18.2225C3.75227 18.3891 4.00009 18.5113 4.26443 18.582C4.52877 18.6528 4.80447 18.6708 5.07578 18.635C5.32578 18.6017 5.5789 18.4996 5.9289 18.3142C6.17947 18.1774 6.46065 18.1064 6.74612 18.1079C7.0316 18.1093 7.31204 18.1832 7.5612 18.3225C8.06432 18.6142 8.36328 19.1507 8.38411 19.7319C8.3987 20.1277 8.4362 20.3986 8.53307 20.6309C8.63777 20.8838 8.7913 21.1136 8.98487 21.3072C9.17844 21.5008 9.40826 21.6543 9.6612 21.759C10.0435 21.9173 10.5289 21.9173 11.4997 21.9173C12.4706 21.9173 12.956 21.9173 13.3383 21.759C13.5912 21.6543 13.821 21.5008 14.0146 21.3072C14.2082 21.1136 14.3617 20.8838 14.4664 20.6309C14.5622 20.3986 14.6008 20.1277 14.6154 19.7319C14.6362 19.1507 14.9352 18.6132 15.4383 18.3225C15.6874 18.1832 15.9679 18.1093 16.2534 18.1079C16.5388 18.1064 16.82 18.1774 17.0706 18.3142C17.4206 18.4996 17.6737 18.6017 17.9237 18.635C18.195 18.6708 18.4707 18.6528 18.735 18.582C18.9994 18.5113 19.2472 18.3891 19.4643 18.2225C19.7924 17.9704 20.0352 17.5496 20.5206 16.709C21.006 15.8684 21.2497 15.4486 21.3029 15.0371C21.3387 14.7658 21.3207 14.4901 21.2499 14.2258C21.1791 13.9614 21.0569 13.7136 20.8904 13.4965C20.7362 13.2965 20.5206 13.1288 20.1862 12.9184C19.9424 12.7698 19.7402 12.5618 19.5987 12.3139C19.4571 12.0659 19.3808 11.7861 19.3768 11.5007C19.3768 10.9194 19.6935 10.3923 20.1862 10.084C20.5206 9.87253 20.7372 9.70482 20.8904 9.50482C21.0569 9.2877 21.1791 9.03989 21.2499 8.77554C21.3207 8.5112 21.3387 8.2355 21.3029 7.96419C21.2487 7.55378 21.006 7.13294 20.5216 6.29232C20.0352 5.45169 19.7924 5.0319 19.4643 4.77878C19.2472 4.6122 18.9994 4.49004 18.735 4.41926C18.4707 4.34848 18.195 4.33048 17.9237 4.36628C17.6737 4.39961 17.4206 4.50169 17.0695 4.68711C16.8191 4.82372 16.5381 4.8946 16.2528 4.89315C15.9676 4.89169 15.6873 4.81794 15.4383 4.67878C15.1931 4.53262 14.989 4.32667 14.8451 4.08019C14.7012 3.8337 14.6221 3.55474 14.6154 3.2694C14.6008 2.87357 14.5633 2.60273 14.4664 2.37044C14.3617 2.11751 14.2082 1.88768 14.0146 1.69411C13.821 1.50054 13.5912 1.34702 13.3383 1.24232Z" stroke="black" stroke-width="1.5"/>
</svg>
