<svg width="22" height="22" viewBox="0 0 22 22" fill="none" xmlns="http://www.w3.org/2000/svg">
  <g id="recycle-bin-2--remove-delete-empty-bin-trash-garbage" clip-path="url(#clip0_534_2103)">
    <g id="recycle-bin-2--remove-delete-empty-bin-trash-garbage_2">
      <path id="Vector" d="M1.50977 5.2793H19.6309" stroke="#FF3859" stroke-width="2" stroke-linecap="round" stroke-linejoin="round"/>
      <path id="Vector_2" d="M3.77539 5.2793H17.3663V18.8544C17.3663 19.2544 17.2071 19.6382 16.924 19.921C16.6408 20.2038 16.2567 20.3628 15.8562 20.3628H5.28549C4.88498 20.3628 4.50089 20.2038 4.21768 19.921C3.93449 19.6382 3.77539 19.2544 3.77539 18.8544V5.2793Z" stroke="#FF3859" stroke-width="2" stroke-linecap="round" stroke-linejoin="round"/>
      <path id="Vector_3" d="M6.79492 5.27944V4.52526C6.79492 3.52517 7.19267 2.56603 7.90066 1.85885C8.60866 1.15168 9.56891 0.754395 10.5702 0.754395C11.5714 0.754395 12.5317 1.15168 13.2397 1.85885C13.9477 2.56603 14.3454 3.52517 14.3454 4.52526V5.27944" stroke="#FF3859" stroke-width="2" stroke-linecap="round" stroke-linejoin="round"/>
      <path id="Vector_4" d="M8.30566 9.80664V15.8424" stroke="#FF3859" stroke-width="2" stroke-linecap="round" stroke-linejoin="round"/>
      <path id="Vector_5" d="M12.8359 9.80664V15.8424" stroke="#FF3859" stroke-width="2" stroke-linecap="round" stroke-linejoin="round"/>
    </g>
  </g>
  <defs>
    <clipPath id="clip0_534_2103">
      <rect width="21.1414" height="21.1169" fill="white"/>
    </clipPath>
  </defs>
</svg>
