<svg width="75" height="74" viewBox="0 0 75 74" fill="none" xmlns="http://www.w3.org/2000/svg">
<path d="M46.7497 36.9999C53.5638 36.9999 59.083 31.4808 59.083 24.6666C59.083 17.8524 53.5638 12.3333 46.7497 12.3333C39.9355 12.3333 34.4163 17.8524 34.4163 24.6666C34.4163 31.4808 39.9355 36.9999 46.7497 36.9999ZM18.9997 30.8333V24.6666C18.9997 22.9708 17.6122 21.5833 15.9163 21.5833C14.2205 21.5833 12.833 22.9708 12.833 24.6666V30.8333H6.66634C4.97051 30.8333 3.58301 32.2208 3.58301 33.9166C3.58301 35.6124 4.97051 36.9999 6.66634 36.9999H12.833V43.1666C12.833 44.8624 14.2205 46.2499 15.9163 46.2499C17.6122 46.2499 18.9997 44.8624 18.9997 43.1666V36.9999H25.1663C26.8622 36.9999 28.2497 35.6124 28.2497 33.9166C28.2497 32.2208 26.8622 30.8333 25.1663 30.8333H18.9997ZM46.7497 43.1666C38.5172 43.1666 22.083 47.2983 22.083 55.4999V58.5833C22.083 60.2791 23.4705 61.6666 25.1663 61.6666H68.333C70.0288 61.6666 71.4163 60.2791 71.4163 58.5833V55.4999C71.4163 47.2983 54.9822 43.1666 46.7497 43.1666Z" fill="#ECECF7"/>
</svg>
