<svg width="26" height="25" viewBox="0 0 26 25" fill="none" xmlns="http://www.w3.org/2000/svg">
<g clip-path="url(#clip0_2998_106)">
<path d="M1.39282 21.8748V3.12486C1.39282 2.65125 1.58096 2.19705 1.91585 1.86216C2.25073 1.52727 2.70493 1.33914 3.17854 1.33914H9.76782C10.1757 1.32725 10.5754 1.45545 10.9003 1.70238C11.2252 1.9493 11.4558 2.30007 11.5535 2.69629L12.1071 4.91057H22.8214C23.295 4.91057 23.7493 5.0987 24.0841 5.43359C24.4189 5.76848 24.6071 6.22268 24.6071 6.69629V21.8748C24.6071 22.3485 24.4189 22.8026 24.0841 23.1375C23.7493 23.4725 23.295 23.6605 22.8214 23.6605H3.17854C2.70493 23.6605 2.25073 23.4725 1.91585 23.1375C1.58096 22.8026 1.39282 22.3485 1.39282 21.8748Z" stroke="white" stroke-width="2" stroke-linecap="round" stroke-linejoin="round"/>
</g>
<defs>
<clipPath id="clip0_2998_106">
<rect width="25" height="25" fill="white" transform="translate(0.5)"/>
</clipPath>
</defs>
</svg>
