<svg width="25" height="25" viewBox="0 0 25 25" fill="none" xmlns="http://www.w3.org/2000/svg">
<path d="M15.5676 1.30273C14.1436 1.30273 12.9947 1.30273 12.0915 1.42461C11.154 1.54961 10.3645 1.82044 9.73738 2.44648C9.19155 2.99336 8.91446 3.66523 8.76967 4.45482C8.62905 5.22253 8.60196 6.16107 8.59571 7.28815C8.59461 7.49535 8.67586 7.6945 8.82159 7.8418C8.96732 7.98909 9.1656 8.07246 9.3728 8.07357C9.58 8.07467 9.77915 7.99342 9.92645 7.84769C10.0737 7.70196 10.1571 7.50368 10.1582 7.29648C10.1645 6.15794 10.1936 5.35065 10.3061 4.73711C10.4155 4.14753 10.5895 3.80482 10.8426 3.55169C11.1311 3.26315 11.5363 3.07565 12.3009 2.97253C13.0874 2.86732 14.1301 2.86523 15.6249 2.86523H16.6665C18.1624 2.86523 19.2051 2.86732 19.9915 2.97253C20.7561 3.07565 21.1603 3.26419 21.4499 3.55169C21.7374 3.84023 21.9249 4.2444 22.028 5.01003C22.1343 5.79544 22.1353 6.83919 22.1353 8.33398V16.6673C22.1353 18.1621 22.1343 19.2048 22.028 19.9923C21.9249 20.7569 21.7374 21.1611 21.4488 21.4496C21.1603 21.7381 20.7561 21.9256 19.9915 22.0288C19.2051 22.134 18.1624 22.1361 16.6665 22.1361H15.6249C14.1301 22.1361 13.0874 22.134 12.2999 22.0288C11.5363 21.9256 11.1311 21.7371 10.8426 21.4496C10.5895 21.1954 10.4155 20.8538 10.3061 20.2642C10.1936 19.6507 10.1645 18.8434 10.1582 17.7048C10.1577 17.6022 10.1369 17.5007 10.0972 17.4062C10.0574 17.3116 9.99938 17.2258 9.92645 17.1536C9.85351 17.0815 9.76708 17.0244 9.67209 16.9856C9.57709 16.9469 9.47539 16.9272 9.3728 16.9277C9.2702 16.9283 9.16872 16.949 9.07414 16.9888C8.97957 17.0286 8.89375 17.0866 8.82159 17.1595C8.74943 17.2324 8.69235 17.3189 8.65359 17.4139C8.61483 17.5089 8.59517 17.6106 8.59571 17.7132C8.60196 18.8402 8.62905 19.7788 8.76967 20.5465C8.91551 21.3361 9.19155 22.0079 9.73842 22.5548C10.3645 23.1819 11.1551 23.4507 12.0926 23.5777C12.9947 23.6986 14.1436 23.6986 15.5676 23.6986H16.7238C18.1488 23.6986 19.2968 23.6986 20.1999 23.5777C21.1374 23.4507 21.927 23.1819 22.554 22.5548C23.1811 21.9277 23.4499 21.1382 23.577 20.2007C23.6978 19.2975 23.6978 18.1486 23.6978 16.7246V8.27669C23.6978 6.85273 23.6978 5.70378 23.577 4.80065C23.4509 3.86315 23.1811 3.07357 22.554 2.44648C21.927 1.8194 21.1374 1.55065 20.1999 1.42461C19.2968 1.30273 18.1478 1.30273 16.7238 1.30273H15.5676Z" fill="white"/>
<path d="M15.6243 11.7191C15.8315 11.7191 16.0302 11.8014 16.1767 11.948C16.3232 12.0945 16.4055 12.2932 16.4055 12.5004C16.4055 12.7076 16.3232 12.9063 16.1767 13.0528C16.0302 13.1993 15.8315 13.2816 15.6243 13.2816H4.19407L6.23678 15.0316C6.39425 15.1664 6.49172 15.3583 6.50774 15.565C6.52375 15.7717 6.45701 15.9762 6.3222 16.1337C6.18738 16.2912 5.99552 16.3886 5.78884 16.4047C5.58216 16.4207 5.37758 16.3539 5.22011 16.2191L1.57428 13.0941C1.48851 13.0208 1.41966 12.9297 1.37244 12.8272C1.32523 12.7247 1.30078 12.6132 1.30078 12.5004C1.30078 12.3875 1.32523 12.276 1.37244 12.1735C1.41966 12.071 1.48851 11.98 1.57428 11.9066L5.22011 8.78163C5.29808 8.71487 5.38844 8.66413 5.48602 8.63229C5.58361 8.60046 5.68651 8.58816 5.78884 8.59609C5.89118 8.60402 5.99096 8.63203 6.08247 8.67852C6.17398 8.72501 6.25544 8.78907 6.3222 8.86704C6.38895 8.94502 6.43969 9.03537 6.47153 9.13296C6.50336 9.23054 6.51567 9.33344 6.50774 9.43578C6.4998 9.53811 6.47179 9.63789 6.4253 9.7294C6.37881 9.82091 6.31475 9.90237 6.23678 9.96913L4.19511 11.7191H15.6243Z" fill="white"/>
</svg>
