<svg width="24" height="24" viewBox="0 0 24 24" fill="none" xmlns="http://www.w3.org/2000/svg">
<path d="M10.514 6.49089C11.4764 6.15408 12.5247 6.15408 13.487 6.49089L21.087 9.15089C21.89 9.43289 21.89 10.5689 21.087 10.8509L13.487 13.5109C12.5247 13.8477 11.4764 13.8477 10.514 13.5109L5.00504 11.5809C4.80238 11.7309 4.65029 11.9392 4.56903 12.1779C4.7008 12.2692 4.8087 12.3907 4.88364 12.5324C4.95857 12.6741 4.99836 12.8317 4.99963 12.992C5.0009 13.1523 4.96363 13.3105 4.89096 13.4534C4.81828 13.5963 4.71233 13.7195 4.58203 13.8129L4.58604 13.8309L5.46104 17.7699C5.48049 17.8575 5.48002 17.9484 5.45968 18.0359C5.43934 18.1233 5.39963 18.205 5.3435 18.2751C5.28736 18.3452 5.21622 18.4017 5.13531 18.4406C5.05441 18.4795 4.96581 18.4998 4.87603 18.4999H3.12504C3.03518 18.4999 2.94646 18.4798 2.86543 18.4409C2.78441 18.4021 2.71314 18.3456 2.65689 18.2755C2.60064 18.2054 2.56084 18.1236 2.54045 18.0361C2.52005 17.9486 2.51957 17.8576 2.53904 17.7699L3.41404 13.8299L3.41904 13.8129C3.27892 13.7128 3.16703 13.5782 3.0942 13.4221C3.02138 13.2661 2.99009 13.0938 3.00337 12.9221C3.01665 12.7504 3.07404 12.5851 3.16999 12.4421C3.26594 12.2991 3.39719 12.1833 3.55104 12.1059C3.62468 11.7838 3.76541 11.4809 3.96404 11.2169L2.91404 10.8499C2.11004 10.5679 2.11004 9.43189 2.91404 9.14989L10.514 6.49089Z" fill="white"/>
<path d="M6.39295 12.8291L6.06095 15.4831C6.00395 15.9351 6.18795 16.4031 6.58095 16.6791C7.73795 17.4941 9.62395 18.4991 12.0009 18.4991C13.9772 18.5053 15.9004 17.8608 17.4739 16.6651C17.8389 16.3851 17.9959 15.9381 17.9439 15.5131L17.6079 12.8281L13.4869 14.2701C12.5246 14.6069 11.4763 14.6069 10.5139 14.2701L6.39295 12.8291Z" fill="white"/>
</svg>
