<svg width="26" height="25" viewBox="0 0 26 25" fill="none" xmlns="http://www.w3.org/2000/svg">
<g clip-path="url(#clip0_2998_97)">
<path d="M19.1085 15.1168C17.5206 15.1168 16.2334 13.8296 16.2334 12.2417C16.2334 10.6538 17.5206 9.36658 19.1085 9.36658C20.6963 9.36658 21.9837 10.6538 21.9837 12.2417C21.9837 13.8296 20.6963 15.1168 19.1085 15.1168Z" stroke="white" stroke-width="2" stroke-linecap="round" stroke-linejoin="round"/>
<path d="M14.9316 19.5549C15.3277 19.1364 15.786 18.778 16.2924 18.4934C17.1524 18.0103 18.1222 17.7566 19.1087 17.7566C20.0951 17.7566 21.0649 18.0103 21.9249 18.4934C22.2969 18.7024 22.643 18.9512 22.9574 19.2346" stroke="white" stroke-width="2" stroke-linecap="round" stroke-linejoin="round"/>
<path d="M9.80647 14.1939C7.8388 14.1939 6.24365 12.5987 6.24365 10.6311C6.24365 8.66336 7.8388 7.06824 9.80647 7.06824C11.7742 7.06824 13.3693 8.66336 13.3693 10.6311C13.3693 12.5987 11.7742 14.1939 9.80647 14.1939Z" stroke="white" stroke-width="2" stroke-linecap="round" stroke-linejoin="round"/>
<path d="M16.481 24.3692C16.3033 22.2412 15.773 20.8419 15.4823 20.3492C14.8633 19.2969 13.9934 18.427 12.9561 17.8235C11.9189 17.22 10.7492 16.903 9.55951 16.903C8.36982 16.903 7.20014 17.22 6.16289 17.8235C5.33466 18.3054 4.6131 18.9571 4.0408 19.736L3.67798 20.279" stroke="white" stroke-width="2" stroke-linecap="round" stroke-linejoin="round"/>
<path d="M12.9692 24.9384C6.55876 24.9384 1.36206 19.7418 1.36206 13.3313C1.36206 6.92082 6.55876 1.72412 12.9692 1.72412C19.3797 1.72412 24.5763 6.92082 24.5763 13.3313C24.5763 19.7418 19.3797 24.9384 12.9692 24.9384Z" stroke="white" stroke-width="2" stroke-linecap="round" stroke-linejoin="round"/>
</g>
<defs>
<clipPath id="clip0_2998_97">
<rect width="25" height="25" fill="white" transform="translate(0.5)"/>
</clipPath>
</defs>
</svg>
