<svg width="22" height="22" viewBox="0 0 22 22" fill="none" xmlns="http://www.w3.org/2000/svg">
<path d="M15.1249 2.0625V3.4375H17.5744L15.2541 5.77913C14.4248 5.15279 13.4141 4.81349 12.3749 4.8125C11.0893 4.8125 9.88888 5.32125 8.98001 6.23081C8.53075 6.67465 8.17408 7.20326 7.93067 7.78598C7.68725 8.36871 7.56194 8.99396 7.56201 9.62549C7.56207 10.257 7.68751 10.8822 7.93104 11.4649C8.17457 12.0476 8.53135 12.5761 8.9807 13.0199C9.57882 13.618 10.2911 14.0477 11.0858 14.2656C11.1642 14.2058 11.2522 14.1432 11.3223 14.0731C11.6105 13.78 11.8175 13.4171 11.9232 13.0199C11.1746 12.9278 10.4786 12.5872 9.94663 12.0526C9.29763 11.4043 8.93738 10.5435 8.93738 9.625C8.93738 8.7065 9.29832 7.84713 9.94801 7.19813C10.5956 6.54706 11.4564 6.1875 12.3749 6.1875C13.2934 6.1875 14.1534 6.54844 14.8018 7.19813C15.1224 7.51565 15.3769 7.89367 15.5503 8.31026C15.7238 8.72685 15.8129 9.17373 15.8124 9.625C15.8124 10.2197 15.6439 10.7731 15.3614 11.2791C15.4274 11.6339 15.4686 12.0065 15.4686 12.375C15.4686 12.7183 15.44 13.0552 15.3827 13.3856C15.5202 13.2736 15.6426 13.1464 15.7698 13.0199C16.6786 12.1096 17.1874 10.9106 17.1874 9.625C17.1874 8.57312 16.8409 7.5735 16.2208 6.74575L18.5624 4.42613V6.875H19.9374V2.0625H15.1249ZM10.9139 7.73438C10.8356 7.79419 10.7476 7.85675 10.6774 7.92687C10.3804 8.22525 10.1866 8.58687 10.0766 8.98081C10.8259 9.07706 11.51 9.40431 12.0531 9.94744C12.7028 10.5957 13.0638 11.4565 13.0638 12.3743C13.0638 13.2921 12.7028 14.1522 12.0531 14.8012C11.4041 15.4529 10.5434 15.8125 9.62488 15.8125C8.70638 15.8125 7.84632 15.4516 7.19801 14.8019C6.87704 14.4846 6.6224 14.1066 6.44889 13.69C6.27539 13.2733 6.18649 12.8263 6.18738 12.375C6.18738 11.7803 6.35582 11.2269 6.63838 10.7209C6.57014 10.3595 6.53424 9.99275 6.53113 9.625C6.53113 9.28217 6.55978 8.94529 6.61707 8.61437C6.47957 8.72644 6.35788 8.85362 6.23001 8.98081C5.32251 9.889 4.81238 11.0894 4.81238 12.375C4.81238 13.4269 5.15888 14.4265 5.77901 15.2542L4.61988 16.4141L3.24488 15.0391L2.25488 16.0057L3.62988 17.3807L2.25488 18.7557L3.24488 19.7457L4.61988 18.3707L5.99488 19.7457L6.96082 18.7557L5.58582 17.3807L6.74632 16.2216C7.57482 16.8489 8.5857 17.1881 9.62488 17.1875C10.9105 17.1875 12.1109 16.6788 13.0198 15.7692C13.9286 14.861 14.4374 13.6606 14.4374 12.375C14.4374 11.0894 13.9286 9.89038 13.0191 8.98013C12.4209 8.382 11.7087 7.95231 10.9139 7.73438Z" fill="white"/>
</svg>
