<svg width="20" height="20" viewBox="0 0 20 20" fill="none" xmlns="http://www.w3.org/2000/svg">
<path d="M15.8334 5.41671H13.3334V4.58337C13.3334 3.92033 13.07 3.28445 12.6012 2.81561C12.1323 2.34677 11.4965 2.08337 10.8334 2.08337H9.16675C8.50371 2.08337 7.86782 2.34677 7.39898 2.81561C6.93014 3.28445 6.66675 3.92033 6.66675 4.58337V5.41671H4.16675C3.50371 5.41671 2.86782 5.6801 2.39898 6.14894C1.93014 6.61778 1.66675 7.25367 1.66675 7.91671V15.4167C1.66675 16.0797 1.93014 16.7156 2.39898 17.1845C2.86782 17.6533 3.50371 17.9167 4.16675 17.9167H15.8334C16.4965 17.9167 17.1323 17.6533 17.6012 17.1845C18.07 16.7156 18.3334 16.0797 18.3334 15.4167V7.91671C18.3334 7.25367 18.07 6.61778 17.6012 6.14894C17.1323 5.6801 16.4965 5.41671 15.8334 5.41671ZM8.33341 4.58337C8.33341 4.36236 8.42121 4.1504 8.57749 3.99412C8.73377 3.83784 8.94573 3.75004 9.16675 3.75004H10.8334C11.0544 3.75004 11.2664 3.83784 11.4227 3.99412C11.5789 4.1504 11.6667 4.36236 11.6667 4.58337V5.41671H8.33341V4.58337ZM16.6667 15.4167C16.6667 15.6377 16.579 15.8497 16.4227 16.006C16.2664 16.1622 16.0544 16.25 15.8334 16.25H4.16675C3.94573 16.25 3.73377 16.1622 3.57749 16.006C3.42121 15.8497 3.33341 15.6377 3.33341 15.4167V11.2084H5.83341V12.0834C5.83341 12.3044 5.92121 12.5163 6.07749 12.6726C6.23377 12.8289 6.44573 12.9167 6.66675 12.9167C6.88776 12.9167 7.09972 12.8289 7.256 12.6726C7.41228 12.5163 7.50008 12.3044 7.50008 12.0834V11.2084H12.5001V12.0834C12.5001 12.3044 12.5879 12.5163 12.7442 12.6726C12.9004 12.8289 13.1124 12.9167 13.3334 12.9167C13.5544 12.9167 13.7664 12.8289 13.9227 12.6726C14.079 12.5163 14.1667 12.3044 14.1667 12.0834V11.2084H16.6667V15.4167ZM16.6667 9.58337H3.33341V7.91671C3.33341 7.69569 3.42121 7.48373 3.57749 7.32745C3.73377 7.17117 3.94573 7.08337 4.16675 7.08337H15.8334C16.0544 7.08337 16.2664 7.17117 16.4227 7.32745C16.579 7.48373 16.6667 7.69569 16.6667 7.91671V9.58337Z" fill="white"/>
</svg>
