<svg width="25" height="25" viewBox="0 0 25 25" fill="none" xmlns="http://www.w3.org/2000/svg">
<path d="M12.5 15.625C14.2259 15.625 15.625 14.2259 15.625 12.5C15.625 10.7741 14.2259 9.375 12.5 9.375C10.7741 9.375 9.375 10.7741 9.375 12.5C9.375 14.2259 10.7741 15.625 12.5 15.625Z" stroke="white" stroke-width="1.5"/>
<path d="M14.3383 2.24232C13.956 2.08398 13.4706 2.08398 12.4997 2.08398C11.5289 2.08398 11.0435 2.08398 10.6612 2.24232C10.4083 2.34702 10.1784 2.50054 9.98487 2.69411C9.7913 2.88768 9.63777 3.11751 9.53307 3.37044C9.43724 3.60273 9.3987 3.87461 9.38411 4.2694C9.37733 4.55474 9.29828 4.8337 9.15436 5.08019C9.01045 5.32667 8.80636 5.53262 8.5612 5.67878C8.31204 5.81812 8.0316 5.89198 7.74612 5.89343C7.46065 5.89489 7.17947 5.8239 6.9289 5.68711C6.5789 5.50169 6.32578 5.39961 6.07474 5.36628C5.52715 5.29427 4.97338 5.44264 4.53515 5.77878C4.20807 6.0319 3.96432 6.45169 3.4789 7.29232C2.99349 8.13294 2.74974 8.55273 2.69661 8.96419C2.66082 9.2355 2.67882 9.5112 2.7496 9.77554C2.82038 10.0399 2.94254 10.2877 3.10911 10.5048C3.26328 10.7048 3.4789 10.8725 3.81328 11.0829C4.30599 11.3923 4.62265 11.9194 4.62265 12.5007C4.62265 13.0819 4.30599 13.609 3.81328 13.9173C3.4789 14.1288 3.26224 14.2965 3.10911 14.4965C2.94254 14.7136 2.82038 14.9614 2.7496 15.2258C2.67882 15.4901 2.66082 15.7658 2.69661 16.0371C2.75078 16.4475 2.99349 16.8684 3.47786 17.709C3.96432 18.5496 4.20703 18.9694 4.53515 19.2225C4.75227 19.3891 5.00009 19.5113 5.26443 19.582C5.52877 19.6528 5.80447 19.6708 6.07578 19.635C6.32578 19.6017 6.5789 19.4996 6.9289 19.3142C7.17947 19.1774 7.46065 19.1064 7.74612 19.1079C8.0316 19.1093 8.31204 19.1832 8.5612 19.3225C9.06432 19.6142 9.36328 20.1507 9.38411 20.7319C9.3987 21.1277 9.4362 21.3986 9.53307 21.6309C9.63777 21.8838 9.7913 22.1136 9.98487 22.3072C10.1784 22.5008 10.4083 22.6543 10.6612 22.759C11.0435 22.9173 11.5289 22.9173 12.4997 22.9173C13.4706 22.9173 13.956 22.9173 14.3383 22.759C14.5912 22.6543 14.821 22.5008 15.0146 22.3072C15.2082 22.1136 15.3617 21.8838 15.4664 21.6309C15.5622 21.3986 15.6008 21.1277 15.6154 20.7319C15.6362 20.1507 15.9352 19.6132 16.4383 19.3225C16.6874 19.1832 16.9679 19.1093 17.2534 19.1079C17.5388 19.1064 17.82 19.1774 18.0706 19.3142C18.4206 19.4996 18.6737 19.6017 18.9237 19.635C19.195 19.6708 19.4707 19.6528 19.735 19.582C19.9994 19.5113 20.2472 19.3891 20.4643 19.2225C20.7924 18.9704 21.0352 18.5496 21.5206 17.709C22.006 16.8684 22.2497 16.4486 22.3029 16.0371C22.3387 15.7658 22.3207 15.4901 22.2499 15.2258C22.1791 14.9614 22.0569 14.7136 21.8904 14.4965C21.7362 14.2965 21.5206 14.1288 21.1862 13.9184C20.9424 13.7698 20.7402 13.5618 20.5987 13.3139C20.4571 13.0659 20.3808 12.7861 20.3768 12.5007C20.3768 11.9194 20.6935 11.3923 21.1862 11.084C21.5206 10.8725 21.7372 10.7048 21.8904 10.5048C22.0569 10.2877 22.1791 10.0399 22.2499 9.77554C22.3207 9.5112 22.3387 9.2355 22.3029 8.96419C22.2487 8.55378 22.006 8.13294 21.5216 7.29232C21.0352 6.45169 20.7924 6.0319 20.4643 5.77878C20.2472 5.6122 19.9994 5.49004 19.735 5.41926C19.4707 5.34848 19.195 5.33048 18.9237 5.36628C18.6737 5.39961 18.4206 5.50169 18.0695 5.68711C17.8191 5.82372 17.5381 5.8946 17.2528 5.89315C16.9676 5.89169 16.6873 5.81794 16.4383 5.67878C16.1931 5.53262 15.989 5.32667 15.8451 5.08019C15.7012 4.8337 15.6221 4.55474 15.6154 4.2694C15.6008 3.87357 15.5633 3.60273 15.4664 3.37044C15.3617 3.11751 15.2082 2.88768 15.0146 2.69411C14.821 2.50054 14.5912 2.34702 14.3383 2.24232Z" stroke="white" stroke-width="1.5"/>
</svg>
