<svg width="29" height="29" viewBox="0 0 29 29" fill="none" xmlns="http://www.w3.org/2000/svg">
<path d="M15.349 1.80874L18.5805 8.60922C18.654 8.78184 18.7696 8.93134 18.9158 9.04286C19.062 9.15436 19.2337 9.224 19.4138 9.24478L26.5473 10.3464C26.754 10.3741 26.9487 10.4624 27.1088 10.6012C27.269 10.7399 27.3881 10.9233 27.4519 11.1299C27.5159 11.3365 27.522 11.5578 27.4698 11.7679C27.4177 11.9781 27.3092 12.1684 27.157 12.3166L22.0151 17.6342C21.884 17.762 21.7855 17.9219 21.7288 18.0996C21.6719 18.2772 21.6586 18.4667 21.6899 18.6511L22.9297 26.1294C22.9657 26.3444 22.9429 26.5654 22.8642 26.7675C22.7856 26.9696 22.6541 27.1446 22.4846 27.2728C22.3153 27.4007 22.1147 27.4766 21.906 27.4918C21.6973 27.5069 21.4885 27.4607 21.3038 27.3581L14.8816 23.8202C14.7172 23.7361 14.5364 23.6924 14.3532 23.6924C14.17 23.6924 13.9892 23.7361 13.8248 23.8202L7.4025 27.3581C7.21774 27.4607 7.00911 27.5069 6.80037 27.4918C6.59163 27.4766 6.39113 27.4007 6.22174 27.2728C6.05232 27.1446 5.92078 26.9696 5.84209 26.7675C5.76342 26.5654 5.74072 26.3444 5.77661 26.1294L7.01635 18.5663C7.04777 18.382 7.03448 18.1924 6.97769 18.0148C6.92091 17.8372 6.8224 17.6772 6.69117 17.5494L1.48833 12.3166C1.33441 12.1643 1.22616 11.9687 1.1767 11.7536C1.12724 11.5384 1.13869 11.3129 1.20967 11.1044C1.28065 10.8959 1.4081 10.7133 1.5766 10.5788C1.7451 10.4443 1.9474 10.3635 2.15901 10.3464L9.29259 9.24478C9.47266 9.224 9.64436 9.15436 9.79056 9.04286C9.93677 8.93134 10.0524 8.78184 10.1259 8.60922L13.3573 1.80874C13.4453 1.61068 13.5858 1.44299 13.7623 1.32547C13.9388 1.20795 14.1438 1.14551 14.3532 1.14551C14.5626 1.14551 14.7676 1.20795 14.9441 1.32547C15.1205 1.44299 15.261 1.61068 15.349 1.80874Z" stroke="white" stroke-width="2" stroke-linecap="round" stroke-linejoin="round"/>
</svg>
